<svg width="54" height="54" viewBox="0 0 54 54" fill="none" xmlns="http://www.w3.org/2000/svg">
<path d="M38.3961 0H14.6343C6.56496 0 0 6.56528 0 14.6346V38.3964C0 46.466 6.56496 53.031 14.6343 53.031H38.3961C46.466 53.031 53.031 46.4657 53.031 38.3964V14.6346C53.0313 6.56528 46.466 0 38.3961 0ZM48.3262 38.3964C48.3262 43.8716 43.8716 48.3258 38.3964 48.3258H14.6343C9.15939 48.3262 4.70517 43.8716 4.70517 38.3964V14.6346C4.70517 9.15971 9.15939 4.70517 14.6343 4.70517H38.3961C43.8713 4.70517 48.3258 9.15971 48.3258 14.6346V38.3964H48.3262Z" fill="black"/>
<path d="M26.5155 12.8514C18.9806 12.8514 12.8507 18.9813 12.8507 26.5162C12.8507 34.0507 18.9806 40.1803 26.5155 40.1803C34.0503 40.1803 40.1802 34.0507 40.1802 26.5162C40.1802 18.9813 34.0503 12.8514 26.5155 12.8514ZM26.5155 35.4748C21.5754 35.4748 17.5559 31.456 17.5559 26.5159C17.5559 21.5754 21.5751 17.5563 26.5155 17.5563C31.4559 17.5563 35.4751 21.5754 35.4751 26.5159C35.4751 31.456 31.4556 35.4748 26.5155 35.4748Z" fill="black"/>
<path d="M40.7533 8.86169C39.8468 8.86169 38.9563 9.2287 38.3161 9.87174C37.6727 10.5116 37.3029 11.4025 37.3029 12.3122C37.3029 13.219 37.673 14.1095 38.3161 14.7526C38.956 15.3925 39.8468 15.7626 40.7533 15.7626C41.663 15.7626 42.5507 15.3925 43.1938 14.7526C43.8368 14.1095 44.2038 13.2187 44.2038 12.3122C44.2038 11.4025 43.8368 10.5116 43.1938 9.87174C42.5539 9.2287 41.663 8.86169 40.7533 8.86169Z" fill="black"/>
</svg>
