<svg width="62" height="62" viewBox="0 0 62 62" fill="none" xmlns="http://www.w3.org/2000/svg">
<path d="M31 0C13.9622 0 0 14.0833 0 31.1211C0 48.06 13.835 62 31 62C48.1438 62 62 48.0808 62 31.1211C62 14.0833 48.0378 0 31 0ZM36.4492 57.8223C34.7057 58.1855 32.8528 58.3672 31 58.3672C29.1472 58.3672 27.2943 58.1855 25.5508 57.8223V49.3216C25.5508 47.2871 26.0957 46.5605 26.8223 45.5795C27.1922 45.1566 27.4154 44.7773 29.0743 42.274L26.2773 41.8379C19.0841 40.7845 16.2507 37.0424 15.1244 34.1361C13.6713 30.2493 14.4343 25.381 17.0501 22.2935C17.4498 21.821 17.7767 21.0216 17.4862 20.1862C16.9408 18.515 17.0137 15.8633 17.377 14.8458C19.3031 15.1211 21.2836 16.5009 22.9354 17.498C23.6965 17.9422 24.0958 17.8249 24.4609 17.8613C25.7882 17.5851 27.8587 16.9167 31.0364 16.9167C32.998 16.9167 35.0689 17.2071 37.1034 17.7885C37.4672 17.78 38.0518 18.0893 39.065 17.498C40.7916 16.446 42.7049 15.1135 44.623 14.8458C44.9863 15.8633 45.0592 18.515 44.5143 20.1862C44.2233 21.0216 44.5502 21.821 44.9504 22.2935C47.5657 25.3814 48.3287 30.2493 46.8756 34.1361C45.7493 37.0424 42.9159 40.7845 35.7227 41.8379L32.9257 42.274C34.6404 44.8615 34.8211 45.1718 35.1782 45.5795C35.9043 46.5605 36.4492 47.2871 36.4492 49.3216V57.8223ZM40.082 56.7688V49.3216C40.082 47.2507 39.6459 45.8704 39.0646 44.8529C44.5866 43.3639 48.5103 40.0939 50.2539 35.4076C52.1067 30.4674 51.2714 24.582 48.183 20.5131C48.7284 18.0794 48.7284 14.1921 47.4205 12.3757C46.8392 11.5768 46.0397 11.1406 45.0228 11.1406C44.9863 11.1406 44.9863 11.1406 44.9863 11.1406C42.1695 11.2929 39.9524 12.7115 37.5755 14.1557C35.3958 13.5743 33.1797 13.2839 30.9636 13.2839C28.7115 13.2839 26.459 13.6107 24.4614 14.1557C21.9591 12.6467 19.7634 11.2892 16.8685 11.1406C15.9603 11.1406 15.1608 11.5768 14.5795 12.3757C13.2721 14.1921 13.2721 18.0794 13.817 20.5131C10.7286 24.582 9.89326 30.5033 11.7461 35.4076C13.4897 40.0939 17.4134 43.3639 22.9354 44.8529C22.4846 45.6415 22.128 46.6589 21.9875 48.0359C20.8721 48.4205 19.9048 48.5458 19.0051 48.2814C18.0562 48.0009 17.3169 47.3675 16.6745 46.2871C15.2318 43.8634 12.7744 41.8847 9.97652 42.142L10.2958 45.7607C11.5914 45.6419 12.8809 47.0128 13.5507 48.1428C14.6557 50.0037 16.1443 51.2241 17.9763 51.7652C19.3362 52.1659 20.5793 52.1564 21.918 51.8707V56.7688C11.3464 53.0632 3.63281 42.9642 3.63281 31.1211C3.63281 16.0813 15.9603 3.63281 31 3.63281C46.0397 3.63281 58.3672 16.0813 58.3672 31.1211C58.3672 42.9642 50.6536 53.0632 40.082 56.7688Z" fill="black"/>
</svg>
