<svg width="62" height="51" viewBox="0 0 62 51" fill="none" xmlns="http://www.w3.org/2000/svg">
<path d="M54.644 8.11122L54.6133 7.99219C57.2402 6.41736 59.3612 3.82123 60.3047 0.847656C57.8443 2.31132 54.9654 3.42175 52.0703 3.99609C49.7487 1.52263 46.6511 0 42.9883 0C35.9679 0 30.1523 5.68378 30.1523 12.7148C30.1523 13.7153 30.2937 14.6947 30.5156 15.6211V15.7422C20.0523 15.1445 10.5785 9.82312 4.35938 2.17969C3.26796 4.06027 2.66406 6.74759 2.66406 9.08203C2.66406 12.7148 4.82123 17.5805 8.23438 19.8594V20.1016C6.19637 20.0193 4.10895 18.6154 2.42188 17.6797C2.42188 17.7353 2.49574 17.8021 2.49574 17.8577C2.49574 24.0273 7.01787 29.3484 12.8359 30.5156C11.822 30.7838 10.394 31 9.32422 31C8.50102 31 7.67928 30.7849 6.90234 30.6367C8.521 35.6947 13.1992 38.9922 18.7695 38.9922V39.1133C14.4338 42.4746 8.93817 44.8047 3.02734 44.8047C2.00059 44.8047 0.726562 44.6836 0 44.5625C5.62371 48.1753 12.3092 50.375 19.4961 50.375C42.8883 50.375 55.7031 31.1211 55.7031 14.2891V12.5938C58.1912 10.7966 60.298 8.36927 62 5.8125C62 5.8125 57.5358 7.92789 54.644 8.11122ZM50.8594 14.2891C50.8594 17.9233 50.1476 21.7397 48.8008 25.3255C47.3854 29.0941 45.3483 32.4945 42.746 35.4323C38.6647 40.0394 31.3184 45.5312 19.4961 45.5312C19.1487 45.5312 18.8019 45.5252 18.4551 45.5132C19.5965 44.8511 20.6935 44.114 21.7373 43.3047L23.6133 41.8504V39.4766V38.9922V34.1484L21.6178 34.1263C19.4358 34.1021 17.6797 32.3265 17.6797 30.1444V26.1839L15.0603 25.5923C13.9012 25.3305 13.0781 24.3009 13.0781 23.1126V20.1016V19.7383L13.0176 17.2693L10.8634 15.8311C9.9332 15.0484 9.09015 13.9306 8.48952 12.7209C14.8456 17.3561 22.3944 20.1299 30.2394 20.5781L35.3594 20.8705V15.7422V15.6211V15.0489L35.226 14.4925C35.0735 13.8557 34.9961 13.2576 34.9961 12.7148C34.9961 10.6291 35.8283 8.65966 37.3393 7.16911C38.8593 5.66961 40.8656 4.84375 42.9883 4.84375C45.1344 4.84375 47.0019 5.67385 48.5386 7.31104L49.7745 8.62769L49.9239 9.2053L49.9547 9.32434L50.8594 12.8215V14.2891Z" fill="black"/>
</svg>
