<svg width="30" height="25" viewBox="0 0 30 25" fill="none" xmlns="http://www.w3.org/2000/svg">
<path fill-rule="evenodd" clip-rule="evenodd" d="M0 2.5C0 1.11929 1.11929 0 2.5 0H27.5C28.8807 0 30 1.11929 30 2.5C30 3.88071 28.8807 5 27.5 5H2.5C1.11929 5 0 3.88071 0 2.5ZM0 12.5C0 11.1193 1.11929 10 2.5 10H27.5C28.8807 10 30 11.1193 30 12.5C30 13.8807 28.8807 15 27.5 15H2.5C1.11929 15 0 13.8807 0 12.5ZM2.5 20C1.11929 20 0 21.1193 0 22.5C0 23.8807 1.11929 25 2.5 25H27.5C28.8807 25 30 23.8807 30 22.5C30 21.1193 28.8807 20 27.5 20H2.5Z" fill="white"/>
</svg>
